:SAMPLES-PER-SECOND 30
:FULLY-SPECIFIED
:DEGREES
389
root  -2.55648 40.6486 -3.75337 8.55594 -67.0576 -1.29289
RightUpLeg  -4.42779 -0.215102 4.33901
RightLeg  -5.69927 -40.77 7.68645
RightFoot  -1.19418 0.301447 -3.48604
RightToes  -3.13006e-008 1.75238e-005 3.56266e-009
Spine  8.46396 2.6851 -7.81214
Spine1  18.7927 4.30827 -4.73911
HEad  -17.087 -17.0774 5.08057
LeftShoulder1  2.90898 -6.13923 -23.9513
LeftArm  -39.3398 -13.5742 -55.0215
LeftForeArm  -168.458 -70.7263 -155.101
LeftHand  -1.06888 -7.25815 10.1385
RightShoulder  3.83618 8.44313 26.0596
RightArm  -48.9875 10.6988 37.4518
RightForeArm  -178.443 68.9608 156.147
RightHand  -1.62335 7.51915 -14.8538
LeftUpLeg  -12.1288 1.75486 7.5261
LeftLeg  -0.138408 -7.79152 0.470608
LeftFoot  5.1539 1.14758 -8.12438
LeftToes  4.78685e-008 1.46778e-008 1.34523e-009
390
root  -2.45273 40.6577 -3.67918 8.53016 -66.6793 -0.778994
RightUpLeg  -4.98402 -0.146039 4.05444
RightLeg  -5.7716 -41.1081 7.52438
RightFoot  -1.06774 0.265998 -3.02738
RightToes  -3.13006e-008 1.75238e-005 3.56266e-009
Spine  8.50022 2.42031 -7.38475
Spine1  18.2232 4.02299 -4.84012
HEad  -16.6177 -17.0354 4.72996
LeftShoulder1  2.86336 -6.11238 -23.5417
LeftArm  -39.7537 -15.5717 -54.5682
LeftForeArm  -168.9 -70.332 -155.572
LeftHand  -1.09389 -6.72862 10.7843
RightShoulder  3.64663 8.14433 25.2268
RightArm  -49.7454 12.3103 38.5664
RightForeArm  -178.104 68.1929 157.07
RightHand  -1.79324 7.21845 -16.728
LeftUpLeg  -12.5432 1.39897 7.16616
LeftLeg  -0.684471 -7.703 0.505147
LeftFoot  5.54106 1.16797 -8.08958
LeftToes  4.78685e-008 1.46778e-008 1.34523e-009
391
root  -2.3809 40.6722 -3.58563 8.11892 -66.373 -0.304053
RightUpLeg  -5.05586 -0.246827 3.76289
RightLeg  -5.81239 -41.3863 7.4356
RightFoot  -1.02787 0.264647 -2.96432
RightToes  -3.13006e-008 1.75238e-005 3.56266e-009
Spine  8.68072 2.20489 -7.1783
Spine1  17.4236 3.68063 -4.68907
HEad  -16.0317 -17.5088 5.15647
LeftShoulder1  2.85415 -6.21666 -23.1029
LeftArm  -40.0928 -17.7597 -53.8961
LeftForeArm  -169.619 -70.311 -155.516
LeftHand  -1.18468 -6.74246 11.6396
RightShoulder  3.56827 8.0771 24.7058
RightArm  -50.4235 13.5224 38.7988
RightForeArm  -177.429 67.5062 157.887
RightHand  -1.87593 7.4526 -17.1559
LeftUpLeg  -12.3781 1.23904 6.85238
LeftLeg  -1.29128 -7.84397 0.434797
LeftFoot  5.88317 1.14962 -7.81915
LeftToes  4.78685e-008 1.46778e-008 1.34523e-009
392
root  -2.31774 40.6844 -3.4678 7.82434 -66.0415 -0.149379
RightUpLeg  -4.95428 -0.233403 3.62477
RightLeg  -5.80203 -41.8756 7.22989
RightFoot  -0.951076 0.265303 -2.98997
RightToes  -3.13006e-008 1.75238e-005 3.56266e-009
Spine  8.37369 1.84895 -6.93914
Spine1  17.5946 3.25155 -4.44808
HEad  -16.5184 -17.4323 6.02667
LeftShoulder1  2.79025 -6.09682 -22.7874
LeftArm  -40.2014 -20.1123 -53.1474
LeftForeArm  -169.88 -70.5413 -155.182
LeftHand  -1.13142 -6.85669 11.0269
RightShoulder  3.50952 7.9571 24.5074
RightArm  -50.5461 14.5095 38.9241
RightForeArm  -176.798 67.1621 158.312
RightHand  -2.12648 8.00116 -18.6103
LeftUpLeg  -12.209 1.10523 6.59224
LeftLeg  -1.48086 -8.03952 0.391404
LeftFoot  6.00726 1.13058 -7.64313
LeftToes  4.78685e-008 1.46778e-008 1.34523e-009
393
root  -2.27878 40.7035 -3.3205 7.53622 -66.1766 -0.10673
RightUpLeg  -4.79655 -0.228058 3.46944
RightLeg  -5.39325 -41.8343 6.72837
RightFoot  -0.913679 0.234416 -2.63464
RightToes  -3.13006e-008 1.75238e-005 3.56266e-009
Spine  7.97933 1.70844 -7.19241
Spine1  17.651 2.81816 -3.56426
HEad  -16.8295 -17.1284 6.26154
LeftShoulder1  2.74231 -5.97259 -22.6547
LeftArm  -39.7758 -21.3756 -52.3924
LeftForeArm  -171.27 -71.1285 -154.205
LeftHand  -1.34915 -6.7679 13.1702
RightShoulder  3.51279 8.06653 24.2307
RightArm  -50.2253 14.6268 39.0009
RightForeArm  -176.931 67.2454 158.211
RightHand  -2.34266 8.35127 -19.9331
LeftUpLeg  -11.8798 1.02728 6.37349
LeftLeg  -1.45214 -7.89605 0.331622
LeftFoot  5.90287 1.0964 -7.46123
LeftToes  4.78685e-008 1.46778e-008 1.34523e-009
394
root  -2.26374 40.7237 -3.13416 7.0201 -66.4955 0.0356872
RightUpLeg  -4.40752 -0.654275 3.07111
RightLeg  -4.96374 -41.1742 6.53851
RightFoot  -1.0171 0.212372 -2.42535
RightToes  -3.13006e-008 1.75238e-005 3.56266e-009
Spine  7.4512 1.67564 -7.20995
Spine1  17.744 2.63099 -2.97233
HEad  -16.9695 -17.2553 7.19704
LeftShoulder1  2.72091 -5.96586 -22.4373
LeftArm  -38.6693 -22.0268 -52.3802
LeftForeArm  -173.63 -71.9392 -152.711
LeftHand  -1.42346 -6.26521 14.455
RightShoulder  3.53089 8.1009 24.3
RightArm  -49.7597 14.0619 38.9195
RightForeArm  -178.343 67.76 157.515
RightHand  -2.48727 8.33565 -21.1377
LeftUpLeg  -11.3248 0.903936 6.07442
LeftLeg  -1.36273 -7.47101 0.276854
LeftFoot  5.71667 1.02013 -7.02885
LeftToes  4.78685e-008 1.46778e-008 1.34523e-009
395
root  -2.28825 40.7464 -2.94162 6.73281 -66.9881 -0.0907517
RightUpLeg  -3.89806 -0.724404 2.90521
RightLeg  -4.69871 -40.7082 6.19213
RightFoot  -0.98469 0.164984 -1.89379
RightToes  -3.13006e-008 1.75238e-005 3.56266e-009
Spine  6.54685 1.64814 -7.27808
Spine1  17.9441 2.47215 -2.35551
HEad  -16.697 -16.9375 7.73252
LeftShoulder1  2.74283 -6.08254 -22.3088
LeftArm  -37.229 -21.392 -52.4237
LeftForeArm  -175.886 -72.4716 -151.555
LeftHand  -1.43959 -5.35698 15.7659
RightShoulder  3.60132 8.16538 24.7575
RightArm  -49.0945 13.0373 38.7739
RightForeArm  -179.919 68.6045 156.391
RightHand  -2.53775 8.53843 -21.2505
LeftUpLeg  -10.7776 0.857581 5.88297
LeftLeg  -1.02021 -7.00708 0.244748
LeftFoot  5.25519 0.939166 -6.65324
LeftToes  4.78685e-008 1.46778e-008 1.34523e-009
396
root  -2.35679 40.7797 -2.72502 6.27232 -67.8662 -0.303488
RightUpLeg  -2.93394 -0.809588 2.74596
RightLeg  -4.6964 -39.7956 5.98545
RightFoot  -0.863749 0.136512 -1.55159
RightToes  -3.13006e-008 1.75238e-005 3.56266e-009
Spine  5.46635 1.72709 -7.51159
Spine1  18.1988 2.3924 -1.59191
HEad  -16.1626 -16.8633 7.88481
LeftShoulder1  2.75805 -6.11996 -22.3594
LeftArm  -35.6435 -19.9493 -52.6877
LeftForeArm  -178.85 -72.9587 -150.307
LeftHand  -1.41059 -5.30869 15.5293
RightShoulder  3.66119 8.16678 25.2931
RightArm  -48.3502 11.871 39.151
RightForeArm  178.53 69.7121 154.852
RightHand  -2.54524 8.92787 -20.7524
LeftUpLeg  -9.68848 0.856626 5.70892
LeftLeg  -0.867301 -6.20184 0.281833
LeftFoot  4.71708 0.851061 -6.2357
LeftToes  4.78685e-008 1.46778e-008 1.34523e-009
397
root  -2.45453 40.8152 -2.46738 5.70616 -69.0251 -0.668443
RightUpLeg  -1.67422 -1.02608 2.52031
RightLeg  -4.57964 -38.4667 5.7984
RightFoot  -0.904964 0.100599 -1.16821
RightToes  -3.13006e-008 1.75238e-005 3.56266e-009
Spine  4.62466 1.68745 -7.61681
Spine1  17.9793 2.20466 -0.97171
HEad  -15.9334 -16.8635 7.94335
LeftShoulder1  2.76395 -6.01862 -22.7467
LeftArm  -33.7539 -17.6353 -52.8123
LeftForeArm  177.28 -73.3872 -148.959
LeftHand  -1.32011 -4.97991 15.0086
RightShoulder  3.64418 8.04498 25.4847
RightArm  -46.9389 10.5131 40.2321
RightForeArm  175.253 70.7615 153.001
RightHand  -2.46945 8.88068 -20.2244
LeftUpLeg  -8.33615 0.919936 5.54416
LeftLeg  -0.461762 -5.20288 0.328234
LeftFoot  3.8408 0.805217 -6.21256
LeftToes  4.78685e-008 1.46778e-008 1.34523e-009
398
root  -2.60381 40.8439 -2.17676 4.75624 -70.3707 -0.636351
RightUpLeg  -0.355621 -1.2622 2.16538
RightLeg  -4.39248 -36.9601 5.42026
RightFoot  -0.989601 0.0644228 -0.784908
RightToes  -3.13006e-008 1.75238e-005 3.56266e-009
Spine  3.29188 1.60434 -7.87329
Spine1  17.7778 1.97569 -0.26585
HEad  -15.5935 -16.4842 8.06542
LeftShoulder1  2.80751 -6.04867 -23.1331
LeftArm  -31.2729 -14.2581 -52.8217
LeftForeArm  172.387 -73.5626 -147.87
LeftHand  -1.29093 -4.45304 15.4498
RightShoulder  3.67428 8.04873 25.7483
RightArm  -44.7777 8.54494 41.7757
RightForeArm  171.598 71.4808 151.423
RightHand  -2.49334 8.68673 -20.6796
LeftUpLeg  -6.79201 0.968448 5.24132
LeftLeg  -0.14652 -4.01951 0.294214
LeftFoot  2.98265 0.715564 -5.83585
LeftToes  4.78685e-008 1.46778e-008 1.34523e-009
399
root  -2.81771 40.8754 -1.87275 3.50224 -71.9154 -0.334555
RightUpLeg  1.02145 -1.30165 1.83567
RightLeg  -4.06118 -35.4429 4.67891
RightFoot  -1.06569 0.0166662 -0.265999
RightToes  -3.13006e-008 1.75238e-005 3.56266e-009
Spine  1.8774 1.55482 -7.8585
Spine1  17.2572 1.93311 0.00713331
HEad  -15.1375 -16.4812 8.1886
LeftShoulder1  2.85946 -6.15501 -23.3593
LeftArm  -28.2054 -10.5019 -52.7667
LeftForeArm  166.394 -73.6457 -146.749
LeftHand  -1.20106 -3.30138 16.2116
RightShoulder  3.65112 7.79892 26.2676
RightArm  -42.1435 5.81555 43.4516
RightForeArm  167.246 71.55 150.69
RightHand  -2.49031 8.76422 -20.5527
LeftUpLeg  -4.96406 1.13256 4.91377
LeftLeg  -0.0414224 -2.7976 0.137888
LeftFoot  2.14332 0.623754 -5.38441
LeftToes  4.78685e-008 1.46778e-008 1.34523e-009
